<?xml version="1.0" standalone="no"?>
<!DOCTYPE svg PUBLIC "-//W3C//DTD SVG 20010904//EN"
 "http://www.w3.org/TR/2001/REC-SVG-20010904/DTD/svg10.dtd">
<svg version="1.0" xmlns="http://www.w3.org/2000/svg"
 width="192.000000pt" height="192.000000pt" viewBox="0 0 192.000000 192.000000"
 preserveAspectRatio="xMidYMid meet">
<metadata>
Created by potrace 1.14, written by Peter Selinger 2001-2017
</metadata>
<g transform="translate(0.000000,192.000000) scale(0.100000,-0.100000)"
fill="#000000" stroke="none">
<path d="M877 1884 c-3 -3 -25 -7 -49 -9 -64 -4 -121 -22 -164 -51 -21 -14
-62 -37 -91 -51 -106 -50 -148 -123 -129 -222 5 -24 1 -45 -14 -77 -32 -65
-29 -227 6 -343 18 -61 18 -61 -15 -55 -26 6 -30 3 -41 -30 -11 -35 -5 -103
17 -193 5 -21 2 -23 -33 -23 -22 0 -46 -5 -54 -10 -17 -10 -17 -49 -5 -320 l7
-155 -35 -37 c-20 -21 -44 -62 -56 -91 -28 -76 -53 -178 -46 -185 9 -10 1166
-15 1391 -7 189 7 192 7 187 29 -31 137 -68 221 -121 275 -24 24 -24 26 -18
165 4 78 9 175 12 216 6 99 -5 120 -62 120 -41 0 -43 1 -35 23 11 29 24 123
23 166 -2 45 -19 63 -52 56 l-28 -6 20 68 c12 41 21 110 24 174 4 97 2 110
-21 155 -13 27 -26 58 -27 69 -2 11 -8 26 -12 34 -5 8 -11 30 -13 49 -5 47
-20 70 -78 123 -78 72 -170 116 -275 134 -53 9 -206 15 -213 9z"/>
</g>
</svg>
