<?xml version="1.0" encoding="UTF-8"?>
<svg width="50px" height="50px" viewBox="0 0 50 50" version="1.1" xmlns="http://www.w3.org/2000/svg" xmlns:xlink="http://www.w3.org/1999/xlink">
    <!-- Generator: Sketch 60.1 (88133) - https://sketch.com -->
    <title>Logos/Workspace/Contacts</title>
    <desc>Created with Sketch.</desc>
    <defs>
        <path d="M2.5881717,8.7963604 L24.5881717,15.5655912 C25.4273549,15.8238014 26,16.5991395 26,17.4771492 L26,45.2920813 C26,46.3966508 25.1045695,47.2920813 24,47.2920813 C23.8006305,47.2920813 23.6023815,47.2622711 23.4118283,47.2036394 L1.4118283,40.4344086 C0.572645052,40.1761984 1.07525178e-16,39.4008603 0,38.5228506 L0,10.7079184 C3.0881846e-16,9.60334892 0.8954305,8.70791842 2,8.70791842 C2.19936951,8.70791842 2.3976185,8.73772865 2.5881717,8.7963604 Z" id="path-1"></path>
    </defs>
    <g id="Logos/Workspace/Contacts" stroke="none" stroke-width="1" fill="none" fill-rule="evenodd">
        <g id="logo" transform="translate(7.000000, 1.000000)">
            <path d="M12.5881717,0.796360403 L34.5881717,7.56559117 C35.4273549,7.8238014 36,8.59913948 36,9.47714919 L36,37.2920813 C36,38.3966508 35.1045695,39.2920813 34,39.2920813 C33.8006305,39.2920813 33.6023815,39.2622711 33.4118283,39.2036394 L11.4118283,32.4344086 C10.5726451,32.1761984 10,31.4008603 10,30.5228506 L10,2.70791842 C10,1.60334892 10.8954305,0.707918421 12,0.707918421 C12.1993695,0.707918421 12.3976185,0.737728651 12.5881717,0.796360403 Z" id="Rectangle-Copy-19" fill-opacity="0.3" fill="#C79BFF"></path>
            <path d="M7.5881717,4.7963604 L29.5881717,11.5655912 C30.4273549,11.8238014 31,12.5991395 31,13.4771492 L31,41.2920813 C31,42.3966508 30.1045695,43.2920813 29,43.2920813 C28.8006305,43.2920813 28.6023815,43.2622711 28.4118283,43.2036394 L6.4118283,36.4344086 C5.57264505,36.1761984 5,35.4008603 5,34.5228506 L5,6.70791842 C5,5.60334892 5.8954305,4.70791842 7,4.70791842 C7.19936951,4.70791842 7.3976185,4.73772865 7.5881717,4.7963604 Z" id="Rectangle-Copy-18" fill="#CCAFEF" opacity="0.8"></path>
            <use id="Rectangle" fill="#9D66E1" xlink:href="#path-1"></use>
            <path d="M15.0000112,12.616238 L15.0000112,25.75 C14.9996954,25.9525089 15.1215206,26.1352385 15.3085944,26.2127843 C15.4956683,26.2903301 15.7110435,26.2473768 15.8540577,26.104 L17.8230577,24.134 C17.8699599,24.0869791 17.9336441,24.0605531 18.0000577,24.0605531 C18.0664714,24.0605531 18.1301556,24.0869791 18.1770577,24.134 L20.1460577,27.3658619 C20.2890719,27.5092387 20.5044472,27.552192 20.691521,27.4746462 C20.8785949,27.3971003 21.00042,27.2143707 21.0001042,27.0118619 L21.0001042,14.4542099 L15.0000112,12.616238 Z" id="Shape" fill="#9D66E1" fill-rule="nonzero" style="mix-blend-mode: multiply;" mask="url(#mask-2)"></path>
            <path d="M2.4954028,8.63799691 L5.23282411,9.33787057 L5.23282411,9.33787057 L5.23282411,42.0899034 L1.25820588,40.5025065 C0.498367692,40.1990397 3.77405596e-15,39.4633555 0,38.6451586 L0,10.5756698 C-5.7935996e-16,9.47110026 0.8954305,8.57566976 2,8.57566976 C2.16708949,8.57566976 2.33352042,8.59660861 2.4954028,8.63799691 Z" id="Rectangle-Copy-14" fill="#9D66E1" style="mix-blend-mode: multiply;" mask="url(#mask-2)"></path>
        </g>
    </g>
</svg>
